<svg xmlns="http://www.w3.org/2000/svg" viewBox="0 0 69.65 69.37"><defs><style>.cls-1,.cls-2,.cls-3,.cls-5{fill:none;}.cls-1,.cls-2,.cls-3,.cls-4,.cls-5{stroke:#fff;stroke-miterlimit:10;}.cls-1{stroke-width:4.54px;}.cls-2{stroke-width:3.24px;}.cls-3{stroke-width:7.24px;}.cls-4{fill:#fff;stroke-width:5.45px;}.cls-5{stroke-width:3.01px;}</style></defs><g id="Layer_2" data-name="Layer 2"><g id="Layer_2-2" data-name="Layer 2"><path class="cls-1" d="M26.21,25.37l.58,26.86-3.83-4"/><path class="cls-2" d="M28,20.61c-.26.45-.94,1.62-1.89,1.62s-1.74-1.45-2-1.91a4,4,0,0,1-.43-2.46,14.47,14.47,0,0,1,1.07-2.4,9,9,0,0,0,.72-2s0-.25.09-.56.06-.41.08-.51c.2-1.16.21-1.26.27-1.27.21,0,.58,1.16.6,1.24s.12.33.18.54.13.5.14.55a11.85,11.85,0,0,0,.76,2,10.46,10.46,0,0,1,.91,2.22A4.29,4.29,0,0,1,28,20.61Z"/><path class="cls-3" d="M44.88,18.29A19.44,19.44,0,0,1,34.74,54.57"/><circle class="cls-4" cx="38.18" cy="35.41" r="3.39"/><ellipse class="cls-5" cx="34.82" cy="34.69" rx="33.32" ry="33.18"/></g></g></svg>